<mxfile host="Electron" agent="Mozilla/5.0 (Windows NT 10.0; Win64; x64) AppleWebKit/537.36 (KHTML, like Gecko) draw.io/26.0.4 Chrome/128.0.6613.186 Electron/32.2.5 Safari/537.36" version="26.0.4">
  <diagram name="Seite-1" id="XDu7CNrBDLiKuW-QdsDZ">
    <mxGraphModel dx="700" dy="408" grid="1" gridSize="1" guides="1" tooltips="1" connect="1" arrows="1" fold="1" page="1" pageScale="1" pageWidth="1169" pageHeight="827" math="0" shadow="0">
      <root>
        <mxCell id="0" />
        <mxCell id="1" parent="0" />
        <mxCell id="S6qmonKTbHc8kZu2Py3X-1" value="ALU" style="whiteSpace=wrap;html=1;aspect=fixed;" vertex="1" parent="1">
          <mxGeometry x="360" y="240" width="300" height="300" as="geometry" />
        </mxCell>
        <mxCell id="S6qmonKTbHc8kZu2Py3X-2" value="RAM" style="whiteSpace=wrap;html=1;aspect=fixed;" vertex="1" parent="1">
          <mxGeometry x="360" y="80" width="130" height="130" as="geometry" />
        </mxCell>
        <mxCell id="S6qmonKTbHc8kZu2Py3X-3" value="Flash" style="whiteSpace=wrap;html=1;aspect=fixed;" vertex="1" parent="1">
          <mxGeometry x="530" y="80" width="130" height="130" as="geometry" />
        </mxCell>
        <mxCell id="S6qmonKTbHc8kZu2Py3X-4" value="Prog" style="whiteSpace=wrap;html=1;aspect=fixed;" vertex="1" parent="1">
          <mxGeometry x="690" y="240" width="130" height="130" as="geometry" />
        </mxCell>
        <mxCell id="S6qmonKTbHc8kZu2Py3X-5" value="PSU" style="whiteSpace=wrap;html=1;aspect=fixed;" vertex="1" parent="1">
          <mxGeometry x="690" y="410" width="130" height="130" as="geometry" />
        </mxCell>
        <mxCell id="S6qmonKTbHc8kZu2Py3X-6" value="Input" style="whiteSpace=wrap;html=1;aspect=fixed;" vertex="1" parent="1">
          <mxGeometry x="360" y="570" width="130" height="130" as="geometry" />
        </mxCell>
        <mxCell id="S6qmonKTbHc8kZu2Py3X-7" value="Output" style="whiteSpace=wrap;html=1;aspect=fixed;" vertex="1" parent="1">
          <mxGeometry x="530" y="570" width="130" height="130" as="geometry" />
        </mxCell>
        <mxCell id="S6qmonKTbHc8kZu2Py3X-8" value="" style="endArrow=none;html=1;rounded=0;" edge="1" parent="1">
          <mxGeometry width="50" height="50" relative="1" as="geometry">
            <mxPoint x="362.93" y="240" as="sourcePoint" />
            <mxPoint x="362.93" y="210" as="targetPoint" />
          </mxGeometry>
        </mxCell>
        <mxCell id="S6qmonKTbHc8kZu2Py3X-9" value="" style="endArrow=none;html=1;rounded=0;" edge="1" parent="1">
          <mxGeometry width="50" height="50" relative="1" as="geometry">
            <mxPoint x="366.93" y="240" as="sourcePoint" />
            <mxPoint x="366.93" y="210" as="targetPoint" />
          </mxGeometry>
        </mxCell>
        <mxCell id="S6qmonKTbHc8kZu2Py3X-10" value="" style="endArrow=none;html=1;rounded=0;" edge="1" parent="1">
          <mxGeometry width="50" height="50" relative="1" as="geometry">
            <mxPoint x="370.93" y="240" as="sourcePoint" />
            <mxPoint x="370.93" y="210" as="targetPoint" />
          </mxGeometry>
        </mxCell>
        <mxCell id="S6qmonKTbHc8kZu2Py3X-11" value="" style="endArrow=none;html=1;rounded=0;" edge="1" parent="1">
          <mxGeometry width="50" height="50" relative="1" as="geometry">
            <mxPoint x="374.93" y="240" as="sourcePoint" />
            <mxPoint x="374.93" y="210" as="targetPoint" />
          </mxGeometry>
        </mxCell>
        <mxCell id="S6qmonKTbHc8kZu2Py3X-12" value="" style="endArrow=none;html=1;rounded=0;" edge="1" parent="1">
          <mxGeometry width="50" height="50" relative="1" as="geometry">
            <mxPoint x="378.93" y="240" as="sourcePoint" />
            <mxPoint x="378.93" y="210" as="targetPoint" />
          </mxGeometry>
        </mxCell>
        <mxCell id="S6qmonKTbHc8kZu2Py3X-13" value="" style="endArrow=none;html=1;rounded=0;" edge="1" parent="1">
          <mxGeometry width="50" height="50" relative="1" as="geometry">
            <mxPoint x="382.93" y="240" as="sourcePoint" />
            <mxPoint x="382.93" y="210" as="targetPoint" />
          </mxGeometry>
        </mxCell>
        <mxCell id="S6qmonKTbHc8kZu2Py3X-14" value="" style="endArrow=none;html=1;rounded=0;" edge="1" parent="1">
          <mxGeometry width="50" height="50" relative="1" as="geometry">
            <mxPoint x="386.93" y="240" as="sourcePoint" />
            <mxPoint x="386.93" y="210" as="targetPoint" />
          </mxGeometry>
        </mxCell>
        <mxCell id="S6qmonKTbHc8kZu2Py3X-15" value="" style="endArrow=none;html=1;rounded=0;" edge="1" parent="1">
          <mxGeometry width="50" height="50" relative="1" as="geometry">
            <mxPoint x="390.93" y="240" as="sourcePoint" />
            <mxPoint x="390.93" y="210" as="targetPoint" />
          </mxGeometry>
        </mxCell>
        <mxCell id="S6qmonKTbHc8kZu2Py3X-16" value="" style="endArrow=none;html=1;rounded=0;" edge="1" parent="1">
          <mxGeometry width="50" height="50" relative="1" as="geometry">
            <mxPoint x="394.93" y="240" as="sourcePoint" />
            <mxPoint x="394.93" y="210" as="targetPoint" />
          </mxGeometry>
        </mxCell>
        <mxCell id="S6qmonKTbHc8kZu2Py3X-17" value="" style="endArrow=none;html=1;rounded=0;" edge="1" parent="1">
          <mxGeometry width="50" height="50" relative="1" as="geometry">
            <mxPoint x="398.93" y="240" as="sourcePoint" />
            <mxPoint x="398.93" y="210" as="targetPoint" />
          </mxGeometry>
        </mxCell>
        <mxCell id="S6qmonKTbHc8kZu2Py3X-18" value="" style="endArrow=none;html=1;rounded=0;" edge="1" parent="1">
          <mxGeometry width="50" height="50" relative="1" as="geometry">
            <mxPoint x="402.93" y="240" as="sourcePoint" />
            <mxPoint x="402.93" y="210" as="targetPoint" />
          </mxGeometry>
        </mxCell>
        <mxCell id="S6qmonKTbHc8kZu2Py3X-19" value="" style="endArrow=none;html=1;rounded=0;" edge="1" parent="1">
          <mxGeometry width="50" height="50" relative="1" as="geometry">
            <mxPoint x="406.93" y="240" as="sourcePoint" />
            <mxPoint x="406.93" y="210" as="targetPoint" />
          </mxGeometry>
        </mxCell>
        <mxCell id="S6qmonKTbHc8kZu2Py3X-20" value="" style="endArrow=none;html=1;rounded=0;" edge="1" parent="1">
          <mxGeometry width="50" height="50" relative="1" as="geometry">
            <mxPoint x="410.93" y="240" as="sourcePoint" />
            <mxPoint x="410.93" y="210" as="targetPoint" />
          </mxGeometry>
        </mxCell>
        <mxCell id="S6qmonKTbHc8kZu2Py3X-21" value="" style="endArrow=none;html=1;rounded=0;" edge="1" parent="1">
          <mxGeometry width="50" height="50" relative="1" as="geometry">
            <mxPoint x="414.93" y="240" as="sourcePoint" />
            <mxPoint x="414.93" y="210" as="targetPoint" />
          </mxGeometry>
        </mxCell>
        <mxCell id="S6qmonKTbHc8kZu2Py3X-22" value="" style="endArrow=none;html=1;rounded=0;" edge="1" parent="1">
          <mxGeometry width="50" height="50" relative="1" as="geometry">
            <mxPoint x="418.93" y="240" as="sourcePoint" />
            <mxPoint x="418.93" y="210" as="targetPoint" />
          </mxGeometry>
        </mxCell>
        <mxCell id="S6qmonKTbHc8kZu2Py3X-23" value="" style="endArrow=none;html=1;rounded=0;" edge="1" parent="1">
          <mxGeometry width="50" height="50" relative="1" as="geometry">
            <mxPoint x="422.93" y="240" as="sourcePoint" />
            <mxPoint x="422.93" y="210" as="targetPoint" />
          </mxGeometry>
        </mxCell>
        <mxCell id="S6qmonKTbHc8kZu2Py3X-40" value="" style="endArrow=none;html=1;rounded=0;" edge="1" parent="1">
          <mxGeometry width="50" height="50" relative="1" as="geometry">
            <mxPoint x="426.93" y="240" as="sourcePoint" />
            <mxPoint x="426.93" y="210" as="targetPoint" />
          </mxGeometry>
        </mxCell>
        <mxCell id="S6qmonKTbHc8kZu2Py3X-41" value="" style="endArrow=none;html=1;rounded=0;" edge="1" parent="1">
          <mxGeometry width="50" height="50" relative="1" as="geometry">
            <mxPoint x="430.93" y="240" as="sourcePoint" />
            <mxPoint x="430.93" y="210" as="targetPoint" />
          </mxGeometry>
        </mxCell>
        <mxCell id="S6qmonKTbHc8kZu2Py3X-42" value="" style="endArrow=none;html=1;rounded=0;" edge="1" parent="1">
          <mxGeometry width="50" height="50" relative="1" as="geometry">
            <mxPoint x="434.93" y="240" as="sourcePoint" />
            <mxPoint x="434.93" y="210" as="targetPoint" />
          </mxGeometry>
        </mxCell>
        <mxCell id="S6qmonKTbHc8kZu2Py3X-43" value="" style="endArrow=none;html=1;rounded=0;" edge="1" parent="1">
          <mxGeometry width="50" height="50" relative="1" as="geometry">
            <mxPoint x="438.93" y="240" as="sourcePoint" />
            <mxPoint x="438.93" y="210" as="targetPoint" />
          </mxGeometry>
        </mxCell>
        <mxCell id="S6qmonKTbHc8kZu2Py3X-44" value="" style="endArrow=none;html=1;rounded=0;" edge="1" parent="1">
          <mxGeometry width="50" height="50" relative="1" as="geometry">
            <mxPoint x="442.93" y="240" as="sourcePoint" />
            <mxPoint x="442.93" y="210" as="targetPoint" />
          </mxGeometry>
        </mxCell>
        <mxCell id="S6qmonKTbHc8kZu2Py3X-45" value="" style="endArrow=none;html=1;rounded=0;" edge="1" parent="1">
          <mxGeometry width="50" height="50" relative="1" as="geometry">
            <mxPoint x="446.93" y="240" as="sourcePoint" />
            <mxPoint x="446.93" y="210" as="targetPoint" />
          </mxGeometry>
        </mxCell>
        <mxCell id="S6qmonKTbHc8kZu2Py3X-46" value="" style="endArrow=none;html=1;rounded=0;" edge="1" parent="1">
          <mxGeometry width="50" height="50" relative="1" as="geometry">
            <mxPoint x="450.93" y="240" as="sourcePoint" />
            <mxPoint x="450.93" y="210" as="targetPoint" />
          </mxGeometry>
        </mxCell>
        <mxCell id="S6qmonKTbHc8kZu2Py3X-47" value="" style="endArrow=none;html=1;rounded=0;" edge="1" parent="1">
          <mxGeometry width="50" height="50" relative="1" as="geometry">
            <mxPoint x="454.93" y="240" as="sourcePoint" />
            <mxPoint x="454.93" y="210" as="targetPoint" />
          </mxGeometry>
        </mxCell>
        <mxCell id="S6qmonKTbHc8kZu2Py3X-48" value="" style="endArrow=none;html=1;rounded=0;" edge="1" parent="1">
          <mxGeometry width="50" height="50" relative="1" as="geometry">
            <mxPoint x="458.93" y="240" as="sourcePoint" />
            <mxPoint x="458.93" y="210" as="targetPoint" />
          </mxGeometry>
        </mxCell>
        <mxCell id="S6qmonKTbHc8kZu2Py3X-49" value="" style="endArrow=none;html=1;rounded=0;" edge="1" parent="1">
          <mxGeometry width="50" height="50" relative="1" as="geometry">
            <mxPoint x="462.93" y="240" as="sourcePoint" />
            <mxPoint x="462.93" y="210" as="targetPoint" />
          </mxGeometry>
        </mxCell>
        <mxCell id="S6qmonKTbHc8kZu2Py3X-50" value="" style="endArrow=none;html=1;rounded=0;" edge="1" parent="1">
          <mxGeometry width="50" height="50" relative="1" as="geometry">
            <mxPoint x="466.93" y="240" as="sourcePoint" />
            <mxPoint x="466.93" y="210" as="targetPoint" />
          </mxGeometry>
        </mxCell>
        <mxCell id="S6qmonKTbHc8kZu2Py3X-51" value="" style="endArrow=none;html=1;rounded=0;" edge="1" parent="1">
          <mxGeometry width="50" height="50" relative="1" as="geometry">
            <mxPoint x="470.93" y="240" as="sourcePoint" />
            <mxPoint x="470.93" y="210" as="targetPoint" />
          </mxGeometry>
        </mxCell>
        <mxCell id="S6qmonKTbHc8kZu2Py3X-52" value="" style="endArrow=none;html=1;rounded=0;" edge="1" parent="1">
          <mxGeometry width="50" height="50" relative="1" as="geometry">
            <mxPoint x="474.93" y="240" as="sourcePoint" />
            <mxPoint x="474.93" y="210" as="targetPoint" />
          </mxGeometry>
        </mxCell>
        <mxCell id="S6qmonKTbHc8kZu2Py3X-53" value="" style="endArrow=none;html=1;rounded=0;" edge="1" parent="1">
          <mxGeometry width="50" height="50" relative="1" as="geometry">
            <mxPoint x="478.93" y="240" as="sourcePoint" />
            <mxPoint x="478.93" y="210" as="targetPoint" />
          </mxGeometry>
        </mxCell>
        <mxCell id="S6qmonKTbHc8kZu2Py3X-54" value="" style="endArrow=none;html=1;rounded=0;" edge="1" parent="1">
          <mxGeometry width="50" height="50" relative="1" as="geometry">
            <mxPoint x="482.93" y="240" as="sourcePoint" />
            <mxPoint x="482.93" y="210" as="targetPoint" />
          </mxGeometry>
        </mxCell>
        <mxCell id="S6qmonKTbHc8kZu2Py3X-55" value="" style="endArrow=none;html=1;rounded=0;" edge="1" parent="1">
          <mxGeometry width="50" height="50" relative="1" as="geometry">
            <mxPoint x="486.93" y="240" as="sourcePoint" />
            <mxPoint x="486.93" y="210" as="targetPoint" />
          </mxGeometry>
        </mxCell>
        <mxCell id="S6qmonKTbHc8kZu2Py3X-56" value="" style="endArrow=none;html=1;rounded=0;" edge="1" parent="1">
          <mxGeometry width="50" height="50" relative="1" as="geometry">
            <mxPoint x="532.88" y="240" as="sourcePoint" />
            <mxPoint x="532.88" y="210" as="targetPoint" />
          </mxGeometry>
        </mxCell>
        <mxCell id="S6qmonKTbHc8kZu2Py3X-57" value="" style="endArrow=none;html=1;rounded=0;" edge="1" parent="1">
          <mxGeometry width="50" height="50" relative="1" as="geometry">
            <mxPoint x="536.88" y="240" as="sourcePoint" />
            <mxPoint x="536.88" y="210" as="targetPoint" />
          </mxGeometry>
        </mxCell>
        <mxCell id="S6qmonKTbHc8kZu2Py3X-58" value="" style="endArrow=none;html=1;rounded=0;" edge="1" parent="1">
          <mxGeometry width="50" height="50" relative="1" as="geometry">
            <mxPoint x="540.88" y="240" as="sourcePoint" />
            <mxPoint x="540.88" y="210" as="targetPoint" />
          </mxGeometry>
        </mxCell>
        <mxCell id="S6qmonKTbHc8kZu2Py3X-59" value="" style="endArrow=none;html=1;rounded=0;" edge="1" parent="1">
          <mxGeometry width="50" height="50" relative="1" as="geometry">
            <mxPoint x="544.88" y="240" as="sourcePoint" />
            <mxPoint x="544.88" y="210" as="targetPoint" />
          </mxGeometry>
        </mxCell>
        <mxCell id="S6qmonKTbHc8kZu2Py3X-60" value="" style="endArrow=none;html=1;rounded=0;" edge="1" parent="1">
          <mxGeometry width="50" height="50" relative="1" as="geometry">
            <mxPoint x="548.88" y="240" as="sourcePoint" />
            <mxPoint x="548.88" y="210" as="targetPoint" />
          </mxGeometry>
        </mxCell>
        <mxCell id="S6qmonKTbHc8kZu2Py3X-61" value="" style="endArrow=none;html=1;rounded=0;" edge="1" parent="1">
          <mxGeometry width="50" height="50" relative="1" as="geometry">
            <mxPoint x="552.88" y="240" as="sourcePoint" />
            <mxPoint x="552.88" y="210" as="targetPoint" />
          </mxGeometry>
        </mxCell>
        <mxCell id="S6qmonKTbHc8kZu2Py3X-62" value="" style="endArrow=none;html=1;rounded=0;" edge="1" parent="1">
          <mxGeometry width="50" height="50" relative="1" as="geometry">
            <mxPoint x="556.88" y="240" as="sourcePoint" />
            <mxPoint x="556.88" y="210" as="targetPoint" />
          </mxGeometry>
        </mxCell>
        <mxCell id="S6qmonKTbHc8kZu2Py3X-63" value="" style="endArrow=none;html=1;rounded=0;" edge="1" parent="1">
          <mxGeometry width="50" height="50" relative="1" as="geometry">
            <mxPoint x="560.88" y="240" as="sourcePoint" />
            <mxPoint x="560.88" y="210" as="targetPoint" />
          </mxGeometry>
        </mxCell>
        <mxCell id="S6qmonKTbHc8kZu2Py3X-64" value="" style="endArrow=none;html=1;rounded=0;" edge="1" parent="1">
          <mxGeometry width="50" height="50" relative="1" as="geometry">
            <mxPoint x="564.88" y="240" as="sourcePoint" />
            <mxPoint x="564.88" y="210" as="targetPoint" />
          </mxGeometry>
        </mxCell>
        <mxCell id="S6qmonKTbHc8kZu2Py3X-65" value="" style="endArrow=none;html=1;rounded=0;" edge="1" parent="1">
          <mxGeometry width="50" height="50" relative="1" as="geometry">
            <mxPoint x="568.88" y="240" as="sourcePoint" />
            <mxPoint x="568.88" y="210" as="targetPoint" />
          </mxGeometry>
        </mxCell>
        <mxCell id="S6qmonKTbHc8kZu2Py3X-66" value="" style="endArrow=none;html=1;rounded=0;" edge="1" parent="1">
          <mxGeometry width="50" height="50" relative="1" as="geometry">
            <mxPoint x="572.88" y="240" as="sourcePoint" />
            <mxPoint x="572.88" y="210" as="targetPoint" />
          </mxGeometry>
        </mxCell>
        <mxCell id="S6qmonKTbHc8kZu2Py3X-67" value="" style="endArrow=none;html=1;rounded=0;" edge="1" parent="1">
          <mxGeometry width="50" height="50" relative="1" as="geometry">
            <mxPoint x="576.88" y="240" as="sourcePoint" />
            <mxPoint x="576.88" y="210" as="targetPoint" />
          </mxGeometry>
        </mxCell>
        <mxCell id="S6qmonKTbHc8kZu2Py3X-68" value="" style="endArrow=none;html=1;rounded=0;" edge="1" parent="1">
          <mxGeometry width="50" height="50" relative="1" as="geometry">
            <mxPoint x="580.88" y="240" as="sourcePoint" />
            <mxPoint x="580.88" y="210" as="targetPoint" />
          </mxGeometry>
        </mxCell>
        <mxCell id="S6qmonKTbHc8kZu2Py3X-69" value="" style="endArrow=none;html=1;rounded=0;" edge="1" parent="1">
          <mxGeometry width="50" height="50" relative="1" as="geometry">
            <mxPoint x="584.88" y="240" as="sourcePoint" />
            <mxPoint x="584.88" y="210" as="targetPoint" />
          </mxGeometry>
        </mxCell>
        <mxCell id="S6qmonKTbHc8kZu2Py3X-70" value="" style="endArrow=none;html=1;rounded=0;" edge="1" parent="1">
          <mxGeometry width="50" height="50" relative="1" as="geometry">
            <mxPoint x="588.88" y="240" as="sourcePoint" />
            <mxPoint x="588.88" y="210" as="targetPoint" />
          </mxGeometry>
        </mxCell>
        <mxCell id="S6qmonKTbHc8kZu2Py3X-71" value="" style="endArrow=none;html=1;rounded=0;" edge="1" parent="1">
          <mxGeometry width="50" height="50" relative="1" as="geometry">
            <mxPoint x="592.88" y="240" as="sourcePoint" />
            <mxPoint x="592.88" y="210" as="targetPoint" />
          </mxGeometry>
        </mxCell>
        <mxCell id="S6qmonKTbHc8kZu2Py3X-72" value="" style="endArrow=none;html=1;rounded=0;" edge="1" parent="1">
          <mxGeometry width="50" height="50" relative="1" as="geometry">
            <mxPoint x="596.88" y="240" as="sourcePoint" />
            <mxPoint x="596.88" y="210" as="targetPoint" />
          </mxGeometry>
        </mxCell>
        <mxCell id="S6qmonKTbHc8kZu2Py3X-73" value="" style="endArrow=none;html=1;rounded=0;" edge="1" parent="1">
          <mxGeometry width="50" height="50" relative="1" as="geometry">
            <mxPoint x="600.88" y="240" as="sourcePoint" />
            <mxPoint x="600.88" y="210" as="targetPoint" />
          </mxGeometry>
        </mxCell>
        <mxCell id="S6qmonKTbHc8kZu2Py3X-74" value="" style="endArrow=none;html=1;rounded=0;" edge="1" parent="1">
          <mxGeometry width="50" height="50" relative="1" as="geometry">
            <mxPoint x="604.88" y="240" as="sourcePoint" />
            <mxPoint x="604.88" y="210" as="targetPoint" />
          </mxGeometry>
        </mxCell>
        <mxCell id="S6qmonKTbHc8kZu2Py3X-75" value="" style="endArrow=none;html=1;rounded=0;" edge="1" parent="1">
          <mxGeometry width="50" height="50" relative="1" as="geometry">
            <mxPoint x="608.88" y="240" as="sourcePoint" />
            <mxPoint x="608.88" y="210" as="targetPoint" />
          </mxGeometry>
        </mxCell>
        <mxCell id="S6qmonKTbHc8kZu2Py3X-76" value="" style="endArrow=none;html=1;rounded=0;" edge="1" parent="1">
          <mxGeometry width="50" height="50" relative="1" as="geometry">
            <mxPoint x="612.88" y="240" as="sourcePoint" />
            <mxPoint x="612.88" y="210" as="targetPoint" />
          </mxGeometry>
        </mxCell>
        <mxCell id="S6qmonKTbHc8kZu2Py3X-77" value="" style="endArrow=none;html=1;rounded=0;" edge="1" parent="1">
          <mxGeometry width="50" height="50" relative="1" as="geometry">
            <mxPoint x="616.88" y="240" as="sourcePoint" />
            <mxPoint x="616.88" y="210" as="targetPoint" />
          </mxGeometry>
        </mxCell>
        <mxCell id="S6qmonKTbHc8kZu2Py3X-78" value="" style="endArrow=none;html=1;rounded=0;" edge="1" parent="1">
          <mxGeometry width="50" height="50" relative="1" as="geometry">
            <mxPoint x="620.88" y="240" as="sourcePoint" />
            <mxPoint x="620.88" y="210" as="targetPoint" />
          </mxGeometry>
        </mxCell>
        <mxCell id="S6qmonKTbHc8kZu2Py3X-79" value="" style="endArrow=none;html=1;rounded=0;" edge="1" parent="1">
          <mxGeometry width="50" height="50" relative="1" as="geometry">
            <mxPoint x="624.88" y="240" as="sourcePoint" />
            <mxPoint x="624.88" y="210" as="targetPoint" />
          </mxGeometry>
        </mxCell>
        <mxCell id="S6qmonKTbHc8kZu2Py3X-80" value="" style="endArrow=none;html=1;rounded=0;" edge="1" parent="1">
          <mxGeometry width="50" height="50" relative="1" as="geometry">
            <mxPoint x="628.88" y="240" as="sourcePoint" />
            <mxPoint x="628.88" y="210" as="targetPoint" />
          </mxGeometry>
        </mxCell>
        <mxCell id="S6qmonKTbHc8kZu2Py3X-81" value="" style="endArrow=none;html=1;rounded=0;" edge="1" parent="1">
          <mxGeometry width="50" height="50" relative="1" as="geometry">
            <mxPoint x="632.88" y="240" as="sourcePoint" />
            <mxPoint x="632.88" y="210" as="targetPoint" />
          </mxGeometry>
        </mxCell>
        <mxCell id="S6qmonKTbHc8kZu2Py3X-82" value="" style="endArrow=none;html=1;rounded=0;" edge="1" parent="1">
          <mxGeometry width="50" height="50" relative="1" as="geometry">
            <mxPoint x="636.88" y="240" as="sourcePoint" />
            <mxPoint x="636.88" y="210" as="targetPoint" />
          </mxGeometry>
        </mxCell>
        <mxCell id="S6qmonKTbHc8kZu2Py3X-83" value="" style="endArrow=none;html=1;rounded=0;" edge="1" parent="1">
          <mxGeometry width="50" height="50" relative="1" as="geometry">
            <mxPoint x="640.88" y="240" as="sourcePoint" />
            <mxPoint x="640.88" y="210" as="targetPoint" />
          </mxGeometry>
        </mxCell>
        <mxCell id="S6qmonKTbHc8kZu2Py3X-84" value="" style="endArrow=none;html=1;rounded=0;" edge="1" parent="1">
          <mxGeometry width="50" height="50" relative="1" as="geometry">
            <mxPoint x="644.88" y="240" as="sourcePoint" />
            <mxPoint x="644.88" y="210" as="targetPoint" />
          </mxGeometry>
        </mxCell>
        <mxCell id="S6qmonKTbHc8kZu2Py3X-85" value="" style="endArrow=none;html=1;rounded=0;" edge="1" parent="1">
          <mxGeometry width="50" height="50" relative="1" as="geometry">
            <mxPoint x="648.88" y="240" as="sourcePoint" />
            <mxPoint x="648.88" y="210" as="targetPoint" />
          </mxGeometry>
        </mxCell>
        <mxCell id="S6qmonKTbHc8kZu2Py3X-86" value="" style="endArrow=none;html=1;rounded=0;" edge="1" parent="1">
          <mxGeometry width="50" height="50" relative="1" as="geometry">
            <mxPoint x="652.88" y="240" as="sourcePoint" />
            <mxPoint x="652.88" y="210" as="targetPoint" />
          </mxGeometry>
        </mxCell>
        <mxCell id="S6qmonKTbHc8kZu2Py3X-87" value="" style="endArrow=none;html=1;rounded=0;" edge="1" parent="1">
          <mxGeometry width="50" height="50" relative="1" as="geometry">
            <mxPoint x="656.88" y="240" as="sourcePoint" />
            <mxPoint x="656.88" y="210" as="targetPoint" />
          </mxGeometry>
        </mxCell>
      </root>
    </mxGraphModel>
  </diagram>
</mxfile>
